<svg id="Layer_1" enable-background="new 0 0 512 512" height="512" viewBox="0 0 512 512" width="512" xmlns="http://www.w3.org/2000/svg"><g><g><path d="m85.914 512h-34.981c-11.402 0-20.645-9.243-20.645-20.645v-31.797l9.29-9.29h57.692l9.29 9.29v31.797c0 11.402-9.244 20.645-20.646 20.645z" fill="#2d4456"/><path d="m30.288 440.977v18.58h76.272v-18.58l-38.136-9.291z" fill="#253847"/><path d="m68.073 381.726h-28.495l-9.29-9.29v-89.886c0-21.3 17.267-38.567 38.567-38.567h8.509l9.29 68.872-9.29 59.581z" fill="#ff9517"/><path d="m30.288 391.016 21.389 9.29 25.686-9.29 9.291-9.29-9.291-9.291h-47.075z" fill="#ef7f0f"/><path d="m443.927 381.726h28.495l9.29-9.29v-89.886c0-21.3-17.267-38.567-38.567-38.567h-8.509l-9.29 68.872 9.29 59.581z" fill="#ff9517"/><path d="m434.637 391.016 23.823 9.29 23.252-9.29v-18.581h-47.075l-9.291 9.291z" fill="#ef7f0f"/><path d="m86.653 38.478-5.542-9.29c7.249-17.152 24.229-29.188 44.02-29.188h261.738c19.786 0 36.762 12.03 44.014 29.174l-5.536 9.303h-338.694z" fill="#ff9517"/><path d="m81.112 29.187c-2.414 5.712-3.749 11.99-3.749 18.58l178.634 9.29 178.64-9.29c0-6.59-1.335-12.869-3.749-18.58z" fill="#ef7f0f"/><path d="m83.648 105.892h-45.354c-4.276 0-7.742-3.466-7.742-7.742s3.466-7.742 7.742-7.742h45.354c4.276 0 7.742 3.466 7.742 7.742s-3.466 7.742-7.742 7.742z" fill="#605a60"/><path d="m473.706 105.892h-45.354c-4.276 0-7.742-3.466-7.742-7.742s3.466-7.742 7.742-7.742h45.354c4.276 0 7.742 3.466 7.742 7.742s-3.466 7.742-7.742 7.742z" fill="#605a60"/><path d="m434.637 47.768h-357.274v125.383 48.226l.53 2.441-.53 16.139v132.478l9.291 9.291h338.692l9.291-9.291v-132.478l-.374-15.904.374-2.681z" fill="#ffcf4d"/><path d="m77.363 391.016 178.637 9.29 178.637-9.29v-18.581h-357.274z" fill="#ffb629"/><path d="m109.762 207.558h292.476c17.894 0 32.399 14.505 32.399 32.399v-18.586c-.003-17.891-14.507-32.394-32.399-32.394h-292.476c-17.893 0-32.399 14.506-32.399 32.399v18.581c0-17.893 14.506-32.399 32.399-32.399z" fill="#ffb629"/><path d="m33.362 176.636h-19.14c-14.222 0-14.222-23.513-14.222-23.513v-62.45c0-7.855 6.368-14.223 14.223-14.223h19.14c7.855 0 14.222 6.368 14.222 14.223v62.45s0 23.513-14.223 23.513z" fill="#2d4456"/><path d="m33.362 167.346h-19.14c-7.854 0-14.222-6.368-14.222-14.223v18.581c0 7.855 6.368 14.222 14.223 14.222h19.14c7.855 0 14.222-6.368 14.222-14.222v-18.581c0 7.855-6.368 14.223-14.223 14.223z" fill="#253847"/><path d="m390.865 163.86h-269.73l-9.29-9.29v-64.661c0-2.851 2.311-5.161 5.161-5.161h131.252l7.742 9.29 7.742-9.29h131.252c2.85 0 5.161 2.311 5.161 5.161v64.661z" fill="#86dcff"/><path d="m117.006 173.151h131.252l7.742-9.29 7.742 9.29h131.252c2.85 0 5.161-2.311 5.161-5.161v-13.42h-288.311v13.419c0 2.851 2.311 5.162 5.162 5.162z" fill="#56caed"/><path d="m343.232 381.726h-174.464l-9.29-9.29v-7.398l9.29-7.742-9.29-7.742v-18.89l9.29-7.742-9.29-7.742v-18.89l9.29-7.742-9.29-7.742v-7.409c0-11.472 9.3-20.773 20.773-20.773h151.499c11.472 0 20.772 9.3 20.772 20.773v7.409l-9.29 7.742 9.29 7.742v18.89l-9.29 7.742 9.29 7.742v18.89l-9.29 7.742 9.29 7.742v7.398z" fill="#2d4456"/><path d="m159.478 372.435h193.044v18.581h-193.044z" fill="#253847"/><ellipse cx="118.391" cy="273.59" fill="#67b734" rx="15.756" ry="15.756" transform="matrix(.973 -.23 .23 .973 -59.691 34.52)"/><ellipse cx="393.58" cy="273.59" fill="#67b734" rx="15.756" ry="15.756" transform="matrix(.924 -.383 .383 .924 -74.739 171.443)"/><circle cx="118.391" cy="335.15" fill="#ff5876" r="15.756"/><circle cx="393.58" cy="335.15" fill="#ff5876" r="15.756"/><g fill="#405b6c"><path d="m159.473 280.805h193.053v15.484h-193.053z"/><path d="m159.473 315.179h193.053v15.484h-193.053z"/><path d="m159.473 349.554h193.053v15.484h-193.053z"/></g><path d="m263.742 84.748v69.822l-7.742 9.291-7.742-9.291v-69.822z" fill="#41adf7"/><path d="m248.258 154.57h15.484v18.581h-15.484z" fill="#1ba0ea"/><path d="m497.777 176.636h-19.14c-14.222 0-14.222-23.513-14.222-23.513v-62.45c0-7.855 6.368-14.223 14.222-14.223h19.14c7.855 0 14.223 6.368 14.223 14.223v62.45s0 23.513-14.223 23.513z" fill="#2d4456"/><path d="m497.777 167.346h-19.14c-7.855 0-14.222-6.368-14.222-14.222v18.581c0 7.855 6.368 14.222 14.222 14.222h19.14c7.855 0 14.223-6.368 14.223-14.222v-18.581c0 7.854-6.368 14.222-14.223 14.222z" fill="#253847"/><path d="m494.472 431.686h-476.944c-8.947 0-16.199-7.253-16.199-16.199v-8.272c0-8.947 7.253-16.199 16.199-16.199h192.076l46.397 9.29 46.397-9.29h192.076c8.947 0 16.199 7.253 16.199 16.199v8.272c-.001 8.947-7.254 16.199-16.201 16.199z" fill="#e6e2e6"/><path d="m461.067 512h-34.982c-11.402 0-20.645-9.243-20.645-20.645v-31.797l9.29-9.29h57.691l9.29 9.29v31.797c.001 11.402-9.242 20.645-20.644 20.645z" fill="#2d4456"/><path d="m405.44 440.977v18.58h76.272v-18.58l-38.135-9.291z" fill="#253847"/><path d="m494.472 422.396h-476.944c-8.775 0-15.902-6.981-16.174-15.69-.005.171-.026.337-.026.509v17.562c0 8.947 7.253 16.199 16.199 16.199h192.076l46.397-9.29 46.397 9.29h192.076c8.947 0 16.199-7.253 16.199-16.199v-17.562c0-.172-.02-.339-.026-.509-.271 8.709-7.399 15.69-16.174 15.69z" fill="#d8d1d7"/><path d="m293.106 431.686h-74.212l-9.291-9.29v-31.38h92.794v31.38z" fill="#ff5876"/><path d="m209.603 422.396h92.793v18.581h-92.793z" fill="#e6485d"/></g></g></svg>