<?xml version="1.0" encoding="iso-8859-1"?>
<!-- Generator: Adobe Illustrator 19.0.0, SVG Export Plug-In . SVG Version: 6.00 Build 0)  -->
<svg version="1.1" id="Capa_1" xmlns="http://www.w3.org/2000/svg" xmlns:xlink="http://www.w3.org/1999/xlink" x="0px" y="0px"
	 viewBox="0 0 468.293 468.293" style="enable-background:new 0 0 468.293 468.293;" xml:space="preserve">
<path style="fill:#3A556A;" d="M234.158,99.163c-27.338,0-49.581-22.241-49.581-49.581S206.82,0,234.158,0
	s49.581,22.241,49.581,49.581S261.497,99.163,234.158,99.163z M234.158,16.527c-18.227,0-33.054,14.827-33.054,33.054
	s14.827,33.054,33.054,33.054s33.054-14.827,33.054-33.054S252.386,16.527,234.158,16.527z"/>
<path style="fill:#FCD462;" d="M393.896,117.808v320.185c0,16.748-13.497,30.3-30.245,30.3h-258.98c-16.747,0-30.3-13.552-30.3-30.3
	V117.808c0-34.652,28.096-62.694,62.748-62.694h194.083C365.855,55.115,393.896,83.156,393.896,117.808z"/>
<path style="fill:#27A2DB;" d="M344.315,290.131v129.516c0,9.091-7.382,16.527-16.527,16.527H140.48
	c-9.09,0-16.527-7.436-16.527-16.527V290.131c0-9.146,7.437-16.527,16.527-16.527h187.307
	C336.933,273.604,344.315,280.985,344.315,290.131z"/>
<g>
	<rect x="168.048" y="292.777" style="fill:#3A556A;" width="16.528" height="16.528"/>
	<rect x="184.57" y="309.323" style="fill:#3A556A;" width="16.528" height="16.528"/>
	<rect x="134.993" y="292.777" style="fill:#3A556A;" width="16.528" height="16.528"/>
	<rect x="151.521" y="309.323" style="fill:#3A556A;" width="16.528" height="16.528"/>
	<rect x="201.104" y="292.777" style="fill:#3A556A;" width="16.528" height="16.528"/>
	<rect x="217.662" y="309.323" style="fill:#3A556A;" width="16.528" height="16.528"/>
	<rect x="234.146" y="292.777" style="fill:#3A556A;" width="16.528" height="16.528"/>
	<rect x="250.686" y="309.323" style="fill:#3A556A;" width="16.528" height="16.528"/>
	<rect x="267.239" y="292.777" style="fill:#3A556A;" width="16.528" height="16.528"/>
	<rect x="283.742" y="309.323" style="fill:#3A556A;" width="16.528" height="16.528"/>
	<rect x="300.269" y="292.777" style="fill:#3A556A;" width="16.528" height="16.528"/>
	<rect x="316.816" y="309.323" style="fill:#3A556A;" width="16.528" height="16.528"/>
</g>
<path style="fill:#64798A;" d="M174.424,369.176c-4.722,6.314-24.554,6.314-29.275,0c-6.226-8.326,6.472-42.972,6.472-42.972h16.332
	C167.953,326.204,180.651,360.849,174.424,369.176z"/>
<ellipse style="fill:#E1E6E9;" cx="159.781" cy="354.841" rx="9.534" ry="10.764"/>
<path style="fill:#2D93BA;" d="M344.315,402.846v16.802c0,9.091-7.382,16.527-16.527,16.527H140.48
	c-9.09,0-16.527-7.436-16.527-16.527v-16.802H344.315z"/>
<path style="fill:#44C4A1;" d="M423.37,263.632v136.294c0,16.307-13.167,29.473-29.474,29.473V247.6h13.442
	C416.208,247.6,423.37,254.762,423.37,263.632z"/>
<path style="fill:#E1E6E9;" d="M423.37,263.632v29.143h-29.474V247.6h13.442C416.208,247.6,423.37,254.762,423.37,263.632z"/>
<path style="fill:#44C4A1;" d="M44.923,263.632v136.294c0,16.307,13.167,29.473,29.474,29.473V247.6H60.954
	C52.085,247.6,44.923,254.762,44.923,263.632z"/>
<path style="fill:#E1E6E9;" d="M44.923,263.632v29.143h29.474V247.6H60.954C52.085,247.6,44.923,254.762,44.923,263.632z"/>
<path style="fill:#F6C358;" d="M393.896,117.808v34.54c-40.161,30.741-96.849,49.912-159.762,49.912
	c-62.913,0-119.656-19.171-159.762-49.966v-34.487c0-34.652,28.096-62.694,62.748-62.694h194.083
	C365.855,55.115,393.896,83.156,393.896,117.808z"/>
<g>
	<path style="fill:#E56353;" d="M159.787,247.6L159.787,247.6c-9.128,0-16.527-7.399-16.527-16.527V55.091h33.054v175.982
		C176.314,240.2,168.914,247.6,159.787,247.6z"/>
	<path style="fill:#E56353;" d="M308.531,247.6L308.531,247.6c-9.128,0-16.527-7.399-16.527-16.527V55.091h33.054v175.982
		C325.058,240.2,317.658,247.6,308.531,247.6z"/>
</g>
<path style="fill:#64798A;" d="M325.439,165.367h-33.817c-2.764,0-5.101,2.049-5.462,4.79l-4.482,34.028
	c-0.869,6.6,4.267,12.457,10.924,12.457h31.857c6.657,0,11.793-5.857,10.924-12.457l-4.482-34.028
	C330.54,167.416,328.204,165.367,325.439,165.367z"/>
<path style="fill:#3A556A;" d="M335.13,202.268c-1.141,4.802-5.403,8.488-10.671,8.488h-31.858c-5.268,0-9.531-3.687-10.671-8.488
	l-0.253,1.917c-0.869,6.6,4.267,12.457,10.924,12.457h31.858c6.657,0,11.793-5.857,10.924-12.457L335.13,202.268z"/>
<path style="fill:#64798A;" d="M176.695,165.367h-33.817c-2.764,0-5.101,2.049-5.462,4.79l-4.482,34.028
	c-0.869,6.6,4.267,12.457,10.924,12.457h31.857c6.657,0,11.793-5.857,10.924-12.457l-4.482-34.028
	C181.796,167.416,179.46,165.367,176.695,165.367z"/>
<path style="fill:#3A556A;" d="M186.386,202.268c-1.141,4.802-5.403,8.488-10.671,8.488h-31.858c-5.268,0-9.531-3.687-10.671-8.488
	l-0.253,1.917c-0.869,6.6,4.267,12.457,10.924,12.457h31.858c6.657,0,11.793-5.857,10.924-12.457L186.386,202.268z"/>
<g>
</g>
<g>
</g>
<g>
</g>
<g>
</g>
<g>
</g>
<g>
</g>
<g>
</g>
<g>
</g>
<g>
</g>
<g>
</g>
<g>
</g>
<g>
</g>
<g>
</g>
<g>
</g>
<g>
</g>
</svg>
