<?xml version="1.0" encoding="iso-8859-1"?>
<!-- Generator: Adobe Illustrator 19.0.0, SVG Export Plug-In . SVG Version: 6.00 Build 0)  -->
<svg version="1.1" id="Capa_1" xmlns="http://www.w3.org/2000/svg" xmlns:xlink="http://www.w3.org/1999/xlink" x="0px" y="0px"
	 viewBox="0 0 512 512" style="enable-background:new 0 0 512 512;" xml:space="preserve">
<path style="fill:#FBAB5F;" d="M327.148,72.098H256V29.674h71.148c3.803,0,6.886,3.083,6.886,6.886v28.652
	C334.034,69.015,330.951,72.098,327.148,72.098z"/>
<rect x="256" y="29.674" style="opacity:0.1;enable-background:new    ;" width="28.05" height="42.42"/>
<path style="fill:#4A5058;" d="M256,114.705c-4.142,0-7.5-3.357-7.5-7.5V21.319c0-4.142,3.358-7.5,7.5-7.5
	c4.143,0,7.5,3.358,7.5,7.5v85.886C263.5,111.348,260.143,114.705,256,114.705z"/>
<rect x="46.967" y="234.25" style="fill:#F1F1F1;" width="418.06" height="263.93"/>
<g style="opacity:0.1;">
	<path d="M148.488,452.193H104.85c-4.142,0-7.5-3.358-7.5-7.5c0-4.143,3.358-7.5,7.5-7.5h43.638c4.142,0,7.5,3.357,7.5,7.5
		S152.63,452.193,148.488,452.193z"/>
	<path d="M148.488,425.343H104.85c-4.142,0-7.5-3.357-7.5-7.5s3.358-7.5,7.5-7.5h43.638c4.142,0,7.5,3.357,7.5,7.5
		S152.63,425.343,148.488,425.343z"/>
	<path d="M126.669,452.193c-4.142,0-7.5-3.358-7.5-7.5v-26.851c0-4.143,3.358-7.5,7.5-7.5c4.142,0,7.5,3.357,7.5,7.5v26.851
		C134.169,448.836,130.811,452.193,126.669,452.193z"/>
</g>
<g style="opacity:0.1;">
	<path d="M423.739,454.658h-41.185c-4.143,0-7.5-3.357-7.5-7.5s3.357-7.5,7.5-7.5h41.185c4.142,0,7.5,3.357,7.5,7.5
		S427.882,454.658,423.739,454.658z"/>
	<path d="M410.784,427.809h-41.638c-4.143,0-7.5-3.357-7.5-7.5s3.357-7.5,7.5-7.5h41.638c4.143,0,7.5,3.357,7.5,7.5
		C418.284,424.451,414.927,427.809,410.784,427.809z"/>
	<path d="M394.966,454.658c-4.143,0-7.5-3.357-7.5-7.5v-26.85c0-4.143,3.357-7.5,7.5-7.5s7.5,3.357,7.5,7.5v26.85
		C402.466,451.301,399.108,454.658,394.966,454.658z"/>
</g>
<g style="opacity:0.1;">
	<path d="M104.851,347.958H63.666c-4.142,0-7.5-3.357-7.5-7.5s3.358-7.5,7.5-7.5h41.184c4.142,0,7.5,3.357,7.5,7.5
		S108.993,347.958,104.851,347.958z"/>
	<path d="M118.259,321.108H76.621c-4.142,0-7.5-3.357-7.5-7.5s3.358-7.5,7.5-7.5h41.638c4.142,0,7.5,3.357,7.5,7.5
		S122.401,321.108,118.259,321.108z"/>
	<path d="M92.44,347.958c-4.142,0-7.5-3.357-7.5-7.5v-26.85c0-4.143,3.358-7.5,7.5-7.5s7.5,3.357,7.5,7.5v26.85
		C99.94,344.601,96.582,347.958,92.44,347.958z"/>
</g>
<g style="opacity:0.1;">
	<path d="M371.759,347.958H328.12c-4.143,0-7.5-3.357-7.5-7.5s3.357-7.5,7.5-7.5h43.639c4.143,0,7.5,3.357,7.5,7.5
		S375.901,347.958,371.759,347.958z"/>
	<path d="M389.489,321.108H328.12c-4.143,0-7.5-3.357-7.5-7.5s3.357-7.5,7.5-7.5h61.369c4.142,0,7.5,3.357,7.5,7.5
		C396.989,317.751,393.632,321.108,389.489,321.108z"/>
	<path d="M349.94,347.958c-4.143,0-7.5-3.357-7.5-7.5v-26.85c0-4.143,3.357-7.5,7.5-7.5c4.142,0,7.5,3.357,7.5,7.5v26.85
		C357.44,344.601,354.082,347.958,349.94,347.958z"/>
	<path d="M371.759,321.108c-4.143,0-7.5-3.357-7.5-7.5v-26.851c0-4.143,3.357-7.5,7.5-7.5s7.5,3.357,7.5,7.5v26.851
		C379.259,317.751,375.901,321.108,371.759,321.108z"/>
</g>
<rect x="46.967" y="462.95" style="opacity:0.05;enable-background:new    ;" width="418.06" height="35.23"/>
<rect x="46.967" y="290.29" style="opacity:0.1;enable-background:new    ;" width="30.797" height="207.89"/>
<path style="fill:#E77587;" d="M499.252,290.292H12.748c-8.17,0-14.229-7.579-12.43-15.548l11.609-51.433
	c2.265-10.036,11.181-17.164,21.47-17.164h445.206c10.289,0,19.204,7.128,21.47,17.164l11.609,51.433
	C513.481,282.713,507.422,290.292,499.252,290.292z"/>
<polygon style="opacity:0.1;enable-background:new    ;" points="504.002,240.72 7.998,240.72 4.612,255.72 507.388,255.72 "/>
<rect x="165.71" y="168" style="fill:#F1F1F1;" width="180.58" height="126.75"/>
<g style="opacity:0.1;">
	<path d="M234.875,244.066h-43.638c-4.142,0-7.5-3.357-7.5-7.5s3.358-7.5,7.5-7.5h43.638c4.142,0,7.5,3.357,7.5,7.5
		S239.017,244.066,234.875,244.066z"/>
	<path d="M234.875,217.217h-43.638c-4.142,0-7.5-3.357-7.5-7.5s3.358-7.5,7.5-7.5h43.638c4.142,0,7.5,3.357,7.5,7.5
		C242.375,213.859,239.017,217.217,234.875,217.217z"/>
	<path d="M213.056,244.066c-4.142,0-7.5-3.357-7.5-7.5v-26.85c0-4.143,3.358-7.5,7.5-7.5s7.5,3.357,7.5,7.5v26.85
		C220.556,240.709,217.198,244.066,213.056,244.066z"/>
</g>
<rect x="165.71" y="168" style="opacity:0.1;enable-background:new    ;" width="180.58" height="18.766"/>
<path style="fill:#E77587;" d="M366.517,168.004H145.483c-6.626,0-11.569-6.102-10.193-12.584l6.568-30.948
	c2.137-10.068,11.026-17.268,21.318-17.268h185.648c10.292,0,19.181,7.2,21.318,17.268l6.568,30.948
	C378.086,161.902,373.142,168.004,366.517,168.004z"/>
<circle style="fill:#FFFFFF;" cx="256" cy="263.94" r="54.22"/>
<g>
	<path style="fill:#4A5058;" d="M256,271.438c-4.142,0-7.5-3.357-7.5-7.5v-25.561c0-4.143,3.358-7.5,7.5-7.5
		c4.143,0,7.5,3.357,7.5,7.5v25.561C263.5,268.08,260.143,271.438,256,271.438z"/>
	<path style="fill:#4A5058;" d="M281.56,271.438H256c-4.142,0-7.5-3.357-7.5-7.5s3.358-7.5,7.5-7.5h25.56c4.143,0,7.5,3.357,7.5,7.5
		C289.06,268.08,285.703,271.438,281.56,271.438z"/>
</g>
<path style="fill:#9B7E73;" d="M301.792,377.658h-91.584c-10.477,0-18.971,8.494-18.971,18.971V498.18h129.526V396.629
	C320.763,386.152,312.269,377.658,301.792,377.658z"/>
<rect x="248.5" y="377.66" style="opacity:0.1;enable-background:new    ;" width="15" height="120.52"/>
<g>
	<path style="fill:#76C9D2;" d="M223.619,437.768c-4.142,0-7.5-3.357-7.5-7.5V410.35c0-4.143,3.358-7.5,7.5-7.5s7.5,3.357,7.5,7.5
		v19.918C231.119,434.41,227.761,437.768,223.619,437.768z"/>
	<path style="fill:#76C9D2;" d="M288.382,437.768c-4.142,0-7.5-3.357-7.5-7.5V410.35c0-4.143,3.358-7.5,7.5-7.5
		c4.143,0,7.5,3.357,7.5,7.5v19.918C295.882,434.41,292.524,437.768,288.382,437.768z"/>
	<path style="fill:#76C9D2;" d="M135.217,396.508h-32.23c-6.641,0-12.025-5.384-12.025-12.025v-32.23
		c0-6.641,5.384-12.025,12.025-12.025h32.23c6.641,0,12.025,5.384,12.025,12.025v32.23
		C147.242,391.125,141.858,396.508,135.217,396.508z"/>
	<path style="fill:#76C9D2;" d="M376.783,396.508h32.23c6.641,0,12.025-5.384,12.025-12.025v-32.23
		c0-6.641-5.384-12.025-12.025-12.025h-32.23c-6.641,0-12.025,5.384-12.025,12.025v32.23
		C364.758,391.125,370.142,396.508,376.783,396.508z"/>
</g>
<path style="fill:#81D4AE;" d="M103.407,442.737H34.958c-14.599,0-26.434,11.835-26.434,26.434v23.112
	c0,3.258,2.641,5.898,5.898,5.898h109.519c3.258,0,5.898-2.641,5.898-5.898V469.17C129.84,454.571,118.005,442.737,103.407,442.737z
	"/>
<path style="opacity:0.1;enable-background:new    ;" d="M56.739,442.737h-21.78c-14.599,0-26.434,11.835-26.434,26.434v23.112
	c0,3.258,2.641,5.898,5.898,5.898h21.78c-3.257,0-5.898-2.641-5.898-5.898V469.17C30.305,454.571,42.14,442.737,56.739,442.737z"/>
<path style="fill:#81D4AE;" d="M408.593,442.737h68.448c14.599,0,26.434,11.835,26.434,26.434v23.112
	c0,3.258-2.641,5.898-5.898,5.898H388.058c-3.258,0-5.898-2.641-5.898-5.898V469.17C382.16,454.571,393.995,442.737,408.593,442.737
	z"/>
<path style="opacity:0.1;enable-background:new    ;" d="M430.374,442.737h-21.78c-14.599,0-26.434,11.835-26.434,26.434v23.112
	c0,3.258,2.641,5.898,5.898,5.898h21.78c-3.257,0-5.898-2.641-5.898-5.898V469.17C403.94,454.571,415.775,442.737,430.374,442.737z"
	/>
<path style="fill:#76C9D2;" d="M256,325.658c-34.033,0-61.721-27.688-61.721-61.721s27.688-61.721,61.721-61.721
	s61.721,27.688,61.721,61.721S290.033,325.658,256,325.658z M256,217.217c-25.762,0-46.721,20.959-46.721,46.721
	s20.959,46.721,46.721,46.721c25.762,0,46.721-20.959,46.721-46.721S281.762,217.217,256,217.217z"/>
<g>
</g>
<g>
</g>
<g>
</g>
<g>
</g>
<g>
</g>
<g>
</g>
<g>
</g>
<g>
</g>
<g>
</g>
<g>
</g>
<g>
</g>
<g>
</g>
<g>
</g>
<g>
</g>
<g>
</g>
</svg>
