<svg id="Layer_1" enable-background="new 0 0 512 512" height="512" viewBox="0 0 512 512" width="512" xmlns="http://www.w3.org/2000/svg"><path d="" style="fill:none;stroke:#000;stroke-width:30;stroke-linecap:round;stroke-linejoin:round;stroke-miterlimit:10"/><g><path d="m356.914 60.28-8.429-13.05c-2.132-3.301-2.143-7.543-.027-10.855l8.268-12.941c2.506-3.922 3.304-8.789 1.814-13.198-2.101-6.215-7.87-10.236-14.227-10.236h-86.791c-8.284 0-15 6.716-15 15v53.418c0 8.284 6.716 15 15 15h86.368c4.666 0 9.208-1.958 12.12-5.604 4.103-5.137 4.359-12.183.904-17.534z" fill="#57a9ff"/><g><path d="m255.673 136.836c-8.284 0-15-6.716-15-15v-106.836c0-8.284 6.716-15 15-15s10.703 0 15 0v121.836c0 8.284-6.716 15-15 15z" fill="#8c4a37"/></g><path d="m256.228 136.808c8.025-.295 14.444-6.875 14.444-14.972v-121.836h-14.444z" fill="#4e2c16"/><path d="m511.982 260.279-21.326-96.22c-1.528-6.61-7.415-11.291-14.2-11.291h-130.951l-57.955 109.388 81.448 80.461z" fill="#b2003a"/><path d="m208.558 285.436-42.016-132.668h-130.613c-6.07 0-11.357 4.141-12.811 10.035l-23.1 99.502 8.322 4.92 12.269 3.856 89.91 24.996z" fill="#ff303f"/><path d="" style="fill:none;stroke:#000;stroke-width:30;stroke-linecap:round;stroke-linejoin:round;stroke-miterlimit:10"/><path d="m345.505 247.001v-121.589c0-6.693-5.426-12.119-12.119-12.119h-154.724c-6.693 0-12.119 5.426-12.119 12.119v121.588c0 5.135-4.163 9.298-9.298 9.298l-151.229.008c-3.313 0-5.999 2.686-5.998 6l.04 234.897c0 8.173 6.625 14.798 14.798 14.798h482.329c8.173 0 14.798-6.625 14.798-14.798v-236.924c0-2.198-1.782-3.98-3.98-3.98h-153.2c-5.135 0-9.298-4.163-9.298-9.298z" fill="#ffd900"/><g fill="#9bfcff"><circle cx="53.637" cy="327.143" r="15.931"/><circle cx="53.637" cy="392.451" r="15.931"/><circle cx="53.637" cy="457.758" r="15.931"/><circle cx="115.519" cy="327.143" r="15.931"/><circle cx="115.519" cy="392.451" r="15.931"/><circle cx="115.519" cy="457.758" r="15.931"/></g><path d="m508.002 256.299h-153.199c-5.135 0-9.298-4.163-9.298-9.298v-121.589c0-6.693-5.426-12.119-12.119-12.119h-77.157v398.707h240.956c8.173 0 14.798-6.625 14.798-14.798v-236.923c-.001-2.198-1.783-3.98-3.981-3.98z" fill="#ffb33a"/><path d="m318.735 512h-125.423v-124.437c0-5.62 4.556-10.176 10.176-10.176h105.072c5.62 0 10.176 4.556 10.176 10.176v124.437z" fill="#854837"/><path d="m308.56 377.388h-52.331v134.612h62.507v-124.437c-.001-5.62-4.556-10.175-10.176-10.175z" fill="#4e2c16"/><g><path d="m318.736 336.012h-125.424c-8.798 0-15.931-7.133-15.931-15.931s7.133-15.931 15.931-15.931h125.424c8.798 0 15.931 7.133 15.931 15.931s-7.133 15.931-15.931 15.931z" fill="#fff5f5"/></g><path d="m318.735 304.15h-62.507v31.862h62.507c8.798 0 15.931-7.133 15.931-15.931.001-8.799-7.132-15.931-15.931-15.931z" fill="#dfebf1"/><circle cx="256.02" cy="203.063" fill="#fff5f5" r="31.53"/><path d="m256.228 171.532v63.05c17.317-.113 31.322-14.181 31.322-31.525s-14.004-31.412-31.322-31.525z" fill="#ebebf0"/><path d="m256.017 247.524c-26.171 0-47.462-21.291-47.462-47.462 0-26.17 21.291-47.461 47.462-47.461 26.17 0 47.461 21.291 47.461 47.461 0 26.171-21.291 47.462-47.461 47.462zm0-63.061c-8.602 0-15.6 6.998-15.6 15.599 0 8.602 6.998 15.6 15.6 15.6 8.601 0 15.599-6.998 15.599-15.6 0-8.601-6.998-15.599-15.599-15.599z" fill="#004960"/><path d="m256.228 152.601v31.867c8.503.115 15.388 7.058 15.388 15.588 0 8.531-6.885 15.474-15.388 15.589v31.867c26.073-.115 47.25-21.357 47.25-47.456 0-26.098-21.177-47.34-47.25-47.455z" fill="#001e2a"/><g fill="#57a9ff"><circle cx="393.93" cy="327.143" r="15.931"/><circle cx="393.93" cy="392.451" r="15.931"/><circle cx="393.93" cy="457.758" r="15.931"/><circle cx="455.811" cy="327.143" r="15.931"/><circle cx="455.811" cy="392.451" r="15.931"/><circle cx="455.811" cy="457.758" r="15.931"/></g></g></svg>