<svg id="Capa_1" enable-background="new 0 0 416.368 416.368" height="512" viewBox="0 0 416.368 416.368" width="512" xmlns="http://www.w3.org/2000/svg"><g><path d="m202.901 51.151h5.11v60.668h-5.11z" fill="#3e6b82"/><path d="m19.405 195.368h377.563v169.849h-377.563z" fill="#d5d6db"/><path d="m416.368 205.834h-416.368l16.086-48.954h384.196z" fill="#ea6453"/><path d="m271.602 365.217h-128.616v-206.729l62.21-46.67 66.406 46.67z" fill="#e1e6e9"/><path d="m205.983 124.016-77.035 61.637-14.172-17.713 91.889-73.538 89.471 73.563-14.172 17.718z" fill="#fe7058"/><path d="m286.357 236.324h24.539v24.539h-24.539z" fill="#ebf0f3"/><path d="m288.593 238.555h20.072v20.072h-20.072z" fill="#029bc5"/><path d="m320.63 236.324h24.539v24.539h-24.539z" fill="#ebf0f3"/><path d="m322.866 238.555h20.072v20.072h-20.072z" fill="#029bc5"/><path d="m354.904 236.324h24.539v24.539h-24.539z" fill="#ebf0f3"/><path d="m357.14 238.555h20.072v20.072h-20.072z" fill="#029bc5"/><path d="m286.357 271.344h24.539v24.539h-24.539z" fill="#ebf0f3"/><path d="m288.588 273.575h20.072v20.072h-20.072z" fill="#029bc5"/><path d="m320.63 271.344h24.539v24.539h-24.539z" fill="#ebf0f3"/><path d="m322.861 273.575h20.072v20.072h-20.072z" fill="#029bc5"/><path d="m354.904 271.344h24.539v24.539h-24.539z" fill="#ebf0f3"/><path d="m357.135 273.575h20.072v20.072h-20.072z" fill="#029bc5"/><path d="m286.357 306.37h24.539v24.539h-24.539z" fill="#ebf0f3"/><path d="m288.593 308.601h20.072v20.072h-20.072z" fill="#029bc5"/><path d="m320.63 306.37h24.539v24.539h-24.539z" fill="#ebf0f3"/><path d="m322.866 308.601h20.072v20.072h-20.072z" fill="#029bc5"/><path d="m354.904 306.37h24.539v24.539h-24.539z" fill="#ebf0f3"/><path d="m357.14 308.601h20.072v20.072h-20.072z" fill="#029bc5"/><path d="m36.925 236.324h24.539v24.539h-24.539z" fill="#ebf0f3"/><path d="m39.161 238.555h20.072v20.072h-20.072z" fill="#029bc5"/><path d="m71.198 236.324h24.539v24.539h-24.539z" fill="#ebf0f3"/><path d="m73.434 238.555h20.072v20.072h-20.072z" fill="#029bc5"/><path d="m105.472 236.324h24.539v24.539h-24.539z" fill="#ebf0f3"/><path d="m107.708 238.555h20.072v20.072h-20.072z" fill="#029bc5"/><path d="m36.925 271.344h24.539v24.539h-24.539z" fill="#ebf0f3"/><path d="m39.156 273.575h20.072v20.072h-20.072z" fill="#029bc5"/><path d="m71.198 271.344h24.539v24.539h-24.539z" fill="#ebf0f3"/><path d="m73.429 273.575h20.072v20.072h-20.072z" fill="#029bc5"/><path d="m105.472 271.344h24.539v24.539h-24.539z" fill="#ebf0f3"/><path d="m107.703 273.575h20.072v20.072h-20.072z" fill="#029bc5"/><path d="m36.925 306.37h24.539v24.539h-24.539z" fill="#ebf0f3"/><path d="m39.161 308.596h20.072v20.072h-20.072z" fill="#029bc5"/><path d="m71.198 306.37h24.539v24.539h-24.539z" fill="#ebf0f3"/><path d="m73.434 308.601h20.072v20.072h-20.072z" fill="#029bc5"/><path d="m105.472 306.37h24.539v24.539h-24.539z" fill="#ebf0f3"/><path d="m107.708 308.601h20.072v20.072h-20.072z" fill="#029bc5"/><path d="m179.633 298.565h55.321v66.653h-55.321z" fill="#3a556a"/><g fill="#029bc5"><path d="m202.901 51.151h39.438v25.459h-39.438z"/><path d="m162.999 192.212h13.617v13.617h-13.617z"/><path d="m188.581 192.212h13.617v13.617h-13.617z"/><path d="m214.169 192.212h13.617v13.617h-13.617z"/><path d="m239.752 192.212h13.617v13.617h-13.617z"/><path d="m162.999 215.104h13.617v13.617h-13.617z"/><path d="m188.581 215.104h13.617v13.617h-13.617z"/><path d="m214.169 215.104h13.617v13.617h-13.617z"/><path d="m239.752 215.104h13.617v13.617h-13.617z"/></g></g></svg>