<svg id="Capa_1" enable-background="new 0 0 512 512" height="512" viewBox="0 0 512 512" width="512" xmlns="http://www.w3.org/2000/svg"><g><g><path d="m442 407c0 1.094.12 2.186.357 3.254l20 90c1.525 6.863 7.613 11.746 14.643 11.746s13.118-4.883 14.643-11.746l20-90c.238-1.068.357-2.16.357-3.254 0-8.284-6.716-15-15-15h-40c-8.284 0-15 6.716-15 15z" fill="#ffe4c1"/><g><g><path d="m491.643 500.254 20-90c.238-1.068.357-2.16.357-3.254 0-8.284-6.716-15-15-15h-20v120c7.03 0 13.118-4.883 14.643-11.746z" fill="#fdd1a3"/></g></g><path d="m512 77c0-8.284-6.716-15-15-15h-40c-8.284 0-15 6.716-15 15v60c0 8.284 6.716 15 15 15h40c8.284 0 15-6.716 15-15z" fill="#ff6c6c"/><path d="m512 137v-60c0-8.284-6.716-15-15-15h-20v90h20c8.284 0 15-6.716 15-15z" fill="#f30051"/><path d="m512 137h-70v45c0 8.284 6.716 15 15 15h40c8.284 0 15-6.716 15-15z" fill="#f9f1f1"/><path d="m512 182v-45h-35v60h20c8.284 0 15-6.716 15-15z" fill="#e2dff4"/><g><path d="m442 182h70v225h-70z" fill="#0052be"/></g><g><path d="m477 182h35v225h-35z" fill="#00337a"/></g></g><g><path d="m345 512h-300c-24.813 0-45-20.187-45-45v-392c0-24.813 20.187-45 45-45h15l135 30 135-30h15c24.813 0 45 20.187 45 45v392c0 24.813-20.187 45-45 45z" fill="#9d7552"/><g><path d="m345 30h-15l-135 30v452h150c24.813 0 45-20.187 45-45v-392c0-24.813-20.187-45-45-45z" fill="#865240"/></g><path d="m315 452h-240c-8.284 0-15-6.716-15-15v-407h270v407c0 8.284-6.716 15-15 15z" fill="#f9f1f1"/><g><path d="m195 30v422h120c8.284 0 15-6.716 15-15v-407z" fill="#e2dff4"/></g><g><path d="m182.962 276.991c-.043-.114-.088-.228-.134-.341-2.287-5.56-7.646-9.149-13.656-9.149-.005 0-.01 0-.016 0-6.017.006-11.375 3.609-13.653 9.178-.038.093-.075.188-.111.282l-37.55 98.591c-2.457 6.452.781 13.673 7.232 16.131 6.454 2.456 13.673-.781 16.131-7.232l6.286-16.504h43.075l6.215 16.468c1.889 5.006 6.646 8.09 11.697 8.09 1.466 0 2.958-.26 4.412-.809 6.459-2.438 9.719-9.649 7.281-16.108zm-25.949 65.954 12.115-31.809 12.004 31.809z" fill="#0052be"/><path d="m260 260.262h-7.262v-7.262c0-6.904-5.596-12.5-12.5-12.5s-12.5 5.596-12.5 12.5v7.262h-7.738c-6.904 0-12.5 5.596-12.5 12.5s5.596 12.5 12.5 12.5h7.738v7.738c0 6.904 5.596 12.5 12.5 12.5s12.5-5.596 12.5-12.5v-7.738h7.262c6.904 0 12.5-5.596 12.5-12.5s-5.596-12.5-12.5-12.5z" fill="#00337a"/><g fill="#0052be"><path d="m135 150h120c8.284 0 15-6.716 15-15s-6.716-15-15-15h-120c-8.284 0-15 6.716-15 15s6.716 15 15 15z"/><path d="m135 210h120c8.284 0 15-6.716 15-15s-6.716-15-15-15h-120c-8.284 0-15 6.716-15 15s6.716 15 15 15z"/></g></g><path d="m255 75h-120c-8.284 0-15-6.716-15-15v-15c0-24.813 20.187-45 45-45h60c24.813 0 45 20.187 45 45v15c0 8.284-6.716 15-15 15z" fill="#ffde46"/><g><g><g fill="#00337a"><path d="m196.781 384.414c1.889 5.006 6.646 8.09 11.697 8.09 1.466 0 2.958-.26 4.412-.809 6.459-2.438 9.719-9.649 7.281-16.108l-25.171-66.699v70.805z"/><path d="m255 150c8.284 0 15-6.716 15-15s-6.716-15-15-15h-60v30z"/><path d="m255 210c8.284 0 15-6.716 15-15s-6.716-15-15-15h-60v30z"/></g><path d="m270 60v-15c0-24.813-20.187-45-45-45h-30v75h60c8.284 0 15-6.716 15-15z" fill="#fdbf00"/></g></g></g></g></svg>